HIERARCHY
ROOT Hip
{
    OFFSET 0.0 0.0 0.0
    CHANNELS 6 Xposition Yposition Zposition Zrotation Xrotation Yrotation
    JOINT RightHip
    {
        OFFSET -12.327881545957279 0.0 0.0
        CHANNELS 3 Zrotation Xrotation Yrotation
        JOINT RightKnee
        {
            OFFSET 0.0 0.0 -41.46891246093215
            CHANNELS 3 Zrotation Xrotation Yrotation
            JOINT RightAnkle
            {
                OFFSET 0.0 0.0 -41.11373258541474
                CHANNELS 3 Zrotation Xrotation Yrotation
                End Site
                {
                    OFFSET 0.0 -16.4454930341659 0.0
                }
            }
        }
    }
    JOINT LeftHip
    {
        OFFSET 12.327881545957279 0.0 0.0
        CHANNELS 3 Zrotation Xrotation Yrotation
        JOINT LeftKnee
        {
            OFFSET 0.0 0.0 -41.46891246093215
            CHANNELS 3 Zrotation Xrotation Yrotation
            JOINT LeftAnkle
            {
                OFFSET 0.0 0.0 -41.11373258541474
                CHANNELS 3 Zrotation Xrotation Yrotation
                End Site
                {
                    OFFSET 0.0 -16.4454930341659 0.0
                }
            }
        }
    }
    JOINT Spine
    {
        OFFSET 0.0 0.0 22.06610730195231
        CHANNELS 3 Zrotation Xrotation Yrotation
        JOINT Thorax
        {
            OFFSET 0.0 0.0 22.42237947416306
            CHANNELS 3 Zrotation Xrotation Yrotation
            JOINT Neck
            {
                OFFSET 0.0 0.0 2.5147146173716957
                CHANNELS 3 Zrotation Xrotation Yrotation
                JOINT Head
                {
                    OFFSET 0.0 0.0 20.88413233412423
                    CHANNELS 3 Zrotation Xrotation Yrotation
                    End Site
                    {
                        OFFSET -8.353652933649693 0.0 0.0
                    }
                }
            }
            JOINT LeftShoulder
            {
                OFFSET 18.255728316152226 0.0 0.0
                CHANNELS 3 Zrotation Xrotation Yrotation
                JOINT LeftElbow
                {
                    OFFSET 30.249375729270543 0.0 0.0
                    CHANNELS 3 Zrotation Xrotation Yrotation
                    JOINT LeftWrist
                    {
                        OFFSET 26.04312528554653 0.0 0.0
                        CHANNELS 3 Zrotation Xrotation Yrotation
                        End Site
                        {
                            OFFSET 10.417250114218614 0.0 0.0
                        }
                    }
                }
            }
            JOINT RightShoulder
            {
                OFFSET -18.255728316152226 0.0 0.0
                CHANNELS 3 Zrotation Xrotation Yrotation
                JOINT RightElbow
                {
                    OFFSET -30.249375729270543 0.0 0.0
                    CHANNELS 3 Zrotation Xrotation Yrotation
                    JOINT RightWrist
                    {
                        OFFSET -26.04312528554653 0.0 0.0
                        CHANNELS 3 Zrotation Xrotation Yrotation
                        End Site
                        {
                            OFFSET -10.417250114218614 0.0 0.0
                        }
                    }
                }
            }
            JOINT Nose
            {
                OFFSET 0.0 0.0 20.308533650732112
                CHANNELS 3 Zrotation Xrotation Yrotation
                End Site
                {
                    OFFSET -8.123413460292845 0.0 0.0
                }
            }
        }
    }
}
MOTION
Frames: 6
Frame Time: 0.03333333333333333
1.4266930341610535 68.4956202879016 16.63634630454294 0.5195299367575027 -6.02086111258482 -15.234221392205951 -10.685644599885462 3.9459043050305773 1.7778165659013496 4.534752155913185 10.043210049717295 0.9979328969303748 -3.975693351829396e-16 1.2069275033730902e-33 -3.4787316828507215e-16 3.7491683986149935 10.566634403605674 -1.6391621257918612 -3.5922672036075314 6.608317307658917 0.04983668711145678 -7.951386703658792e-16 2.4138550067461805e-33 -3.4787316828507215e-16 3.5953722043400714e-16 12.85637002211133 -3.191174527509235e-15 -4.194648799567249 -0.08409530463328785 11.420032294585932 -4.422433659465339 -24.373927636658014 3.331847284307984 7.951386703658792e-16 3.1805546814635168e-15 -9.939233379573492e-17 -74.98430029669065 24.667106170749307 -14.250466073606793 -2.9724732386201523e-15 1.3258208413589021e-14 -113.61455405035032 -1.5902773407317584e-15 0.0 0.0 76.9411490698676 26.377715979038012 7.951533084180516 0.0 0.0 117.00823107541709 3.1805546814635168e-15 -6.3611093629270335e-15 1.7655625192200634e-31 3.4914688490435825e-33 -1.5902773407317584e-15 2.5158684492045397e-16
1.4261319611047194 68.47180506328385 16.64135423599594 0.9157167175876635 -6.036004718310054 -14.857076074923615 -11.66440020496616 3.9778041360037126 1.5830859635055867 5.34240994707326 9.315883911782919 0.9733852751824713 3.975693351829396e-16 -2.2414367919785963e-33 -6.460501696722769e-16 3.603331974669446 10.8319834218158 -1.3780472373117736 -3.8925245726311686 5.860621321288607 0.07520116103929218 0.0 0.0 4.969616689786745e-16 -3.8573510573943204e-16 13.44284104006317 3.273045754992694e-15 -4.476250542644194 -0.0931339120908282 10.555009602443372 -4.0030162039235035 -25.306870541646433 4.6785629433055185 2.758691436281349e-33 3.1805546814635168e-15 -9.93923337957349e-17 -74.20312029121445 26.829372867417405 -15.35626947977195 -7.969219867887818e-15 -5.247369572774296e-15 -113.27382031033062 9.54166404439055e-15 -2.648343778830095e-31 -3.1805546814635168e-15 76.42365222849052 27.63448128987281 8.843849548546482 6.6794560292381755e-15 1.0827729053774187e-14 116.66043172251668 0.0 0.0 0.0 0.0 0.0 3.7582726216512257e-16
1.417275277284278 68.0958755614638 16.720405733787434 0.9571133259213491 -5.77617047419725 -14.93041416596155 -11.96253894802129 3.4811122517728226 1.170571380488637 5.8275465199405705 8.743279903394694 0.8918999557544584 -3.9756933518293955e-16 -4.969616689786745e-17 7.951386703658791e-16 3.5834311353872845 11.105969422929572 -1.0749264834220122 -3.792293294601958 4.698768692997682 0.04851013793513698 0.0 0.0 8.448348372637465e-16 -1.621019717295058e-15 14.088121213862218 6.634826008878158e-15 -4.140152701219401 -0.018065645423140625 10.708092193969101 -4.342068853045389 -26.548223411101016 4.431974905271575 0.0 1.2424041724466862e-17 0.0 -74.34886705245802 27.318696832414165 -16.43683181309867 -1.2034463472475186e-14 -7.747208051013938e-15 -114.45703207780711 1.5902773407317584e-15 0.0 0.0 74.97780701582707 28.566660385855755 9.619414812492773 -1.1458832686905712e-14 -4.496871319424697e-16 117.1145566777655 0.0 0.0 0.0 0.0 0.0 1.0249834422685162e-16
1.4174007081609756 68.10119958205048 16.71928618397926 1.3681816505560267 -5.39659155781848 -14.85886981240264 -12.600830191982975 2.040779028155359 0.7516192947643039 6.710930122608851 9.411361463030586 0.9250286843216249 -3.975693351829396e-16 -4.969616689786745e-17 3.4787316828507215e-16 3.2954045600526682 11.251544608544023 -0.888928508918999 -3.7253033995724345 3.0322403937095608 0.04111269143290042 0.0 0.0 -1.4908850069360235e-16 -2.658595215369388e-16 14.513587723637523 2.0878490277804905e-15 -4.49767891832384 -0.055338970571278547 10.322738813302246 -4.693214525568054 -27.999604251969004 4.547377424188362 0.0 0.0 9.93923337957349e-17 -73.95586876199943 28.252697552409078 -16.91411792191497 -2.7282253142862716e-15 -1.6348439424810762e-15 -118.1370948131504 0.0 0.0 0.0 74.07521819426853 29.79819861133411 10.79771308525182 -5.1323566416187736e-15 -1.1749159401086888e-14 118.5559042075008 -1.5902773407317584e-15 0.0 0.0 -9.93923337957349e-17 -5.44194990360188e-34 6.274141070855766e-16
1.417083902463643 68.08775249390932 16.722113874951493 1.4779122486647427 -4.847655199191655 -14.946690906667927 -12.899982686633257 -0.5967037664062521 0.01005819080504235 7.223105023277662 11.659706719900427 1.0942415516374302 0.0 0.0 5.466578358765419e-16 3.2201069610499493 10.54234908906018 -0.6762887515192709 -3.4802606889599272 2.8214854471100117 0.030173117212421784 0.0 0.0 2.981770013872047e-16 -6.069751422377126e-16 15.675595088463849 -1.4213908332054569e-15 -5.789165101752128 -0.2674228376503843 9.688276298819968 -4.155168325932541 -30.65517964941964 4.208180380931664 0.0 0.0 1.987846675914698e-16 -71.62989318126245 30.016907312459796 -18.10157768290124 -3.21702127103652e-15 5.487666760000697e-15 -119.2399891986035 -1.5902773407317584e-15 0.0 0.0 74.05412074079378 31.43113199487371 12.526198724948841 -9.993212446265986e-16 7.888339974998528e-15 120.70012665701445 1.5902773407317584e-15 0.0 0.0 0.0 0.0 -1.2424041724466862e-17
1.4182600401804097 68.13767466284972 16.711616102872867 1.7932808404161693 -4.402530748355433 -13.52874019139505 -12.990911160422488 -2.9246798903100615 -0.7226217147014808 7.173291983735912 14.277756615762522 1.3450940748584805 0.0 0.0 -7.20594420019078e-16 3.3228107316782616 9.763133602355477 -0.4381646796205741 -3.2961368730211094 2.2996326347389777 0.014583310196616744 0.0 0.0 -6.957463365701443e-16 1.152179229421379e-16 17.00000430282774 -7.709409258365969e-16 -5.414359056853722 -0.1791509176370871 8.588033796618607 -4.759208227103853 -32.71525809227654 3.1413952930186864 -2.155227684594804e-35 1.2424041724466862e-17 1.987846675914698e-16 -71.0986586364859 31.094685561424395 -20.12216127822205 -1.187205002613964e-14 7.834091511619427e-15 -119.96989777419367 0.0 0.0 0.0 72.73310479191802 31.531224761711133 14.220114037642592 1.3210463822970728e-14 7.110769677156987e-15 120.59508184520668 -3.1805546814635168e-15 0.0 0.0 1.2424041724466862e-17 -7.765026077791789e-19 6.833222948456774e-17
